# xmcd CD database file
#
# Track frame offsets:
#	150
#	18042
#	38674
#	56308
#	76408
#	96801
#	112571
#	132616
#	149588
#	171116
#	189198
#	206597
#
# Disc length: 2991 seconds
#
# Revision: 0
# Processed by: cddbd v1.5.2PL0 Copyright (c) Steve Scherf et al.
# Submitted via: Feurio! 1.68 - http://www.feurio.com
#
DISCID=920bad0c
DTITLE=Nina Attal - Yellow 6.17 
DYEAR=1900
DGENRE=
TTITLE0=Run away
TTITLE1=Stand up
TTITLE2=Do it right now
TTITLE3=Childhood
TTITLE4=Over the mountain
TTITLE5=I wanna be Back
TTITLE6=Prisoner
TTITLE7=What a Dirty night
TTITLE8=Macho man
TTITLE9=Blackstar
TTITLE10=P
TTITLE11=The wind
EXTD=
EXTT0=
EXTT1=
EXTT2=
EXTT3=
EXTT4=
EXTT5=
EXTT6=
EXTT7=
EXTT8=
EXTT9=
EXTT10=
EXTT11=
PLAYORDER=
